<?xml version="1.0" standalone="no"?>
<!DOCTYPE svg PUBLIC "-//W3C//DTD SVG 20010904//EN"
 "http://www.w3.org/TR/2001/REC-SVG-20010904/DTD/svg10.dtd">
<svg version="1.0" xmlns="http://www.w3.org/2000/svg"
 width="100pt" height="40pt" viewBox="0 0 300.000000 114.000000"
 preserveAspectRatio="xMidYMid meet">

<g transform="translate(0.000000,114.000000) scale(0.100000,-0.100000)"
fill="#000000" stroke="none">
<path d="M1705 1052 c-3 -4 -23 -5 -43 -3 -54 3 -105 -39 -126 -105 -15 -46
-15 -55 0 -97 17 -51 64 -94 114 -103 18 -4 30 -13 31 -23 1 -16 4 -34 10 -60
3 -9 -28 -25 -96 -51 -55 -20 -120 -46 -145 -57 -25 -12 -103 -42 -175 -68
-71 -27 -164 -65 -205 -85 -41 -21 -92 -43 -112 -49 -55 -18 -88 -62 -88 -117
0 -60 21 -97 67 -120 36 -18 77 -19 753 -22 790 -3 775 -4 818 58 27 40 30
118 5 160 -21 37 -64 59 -204 108 -64 22 -145 53 -180 68 -35 15 -136 56 -224
90 -178 69 -177 68 -168 162 l6 52 -45 0 c-34 0 -51 6 -75 28 -32 28 -60 91
-44 101 4 3 11 16 15 28 12 38 64 67 115 65 51 -2 82 -25 113 -86 20 -39 30
-39 42 0 5 16 -3 34 -26 65 -26 33 -43 45 -80 55 -26 6 -50 9 -53 6z m105
-496 c47 -20 91 -36 99 -36 8 0 22 -6 30 -13 9 -8 39 -22 66 -31 28 -10 68
-27 91 -37 22 -10 46 -19 53 -19 6 0 29 -9 50 -20 22 -10 53 -22 71 -25 97
-17 209 -71 232 -110 17 -29 17 -33 0 -65 -12 -25 -28 -39 -54 -47 -64 -21
-1101 -19 -1415 3 l-81 6 -17 41 c-15 38 -15 42 3 66 10 14 30 31 43 38 42 20
104 47 114 49 27 5 307 109 360 134 139 65 247 109 260 105 6 -2 48 -20 95
-39z"/>
<path d="M1900 888 c0 -127 6 -158 27 -158 12 0 14 7 9 31 -3 17 -6 78 -6 135
0 86 -3 104 -15 104 -12 0 -15 -19 -15 -112z"/>
<path d="M2282 868 c3 -110 6 -133 18 -133 12 0 14 11 12 53 -4 57 8 82 39 82
13 0 21 -12 30 -42 6 -24 15 -54 19 -68 3 -14 15 -27 25 -29 15 -2 17 1 11 20
-4 13 -13 46 -20 72 -8 27 -21 56 -30 65 -16 16 -19 16 -47 -1 l-31 -17 4 62
c3 54 0 63 -15 66 -16 3 -17 -6 -15 -130z"/>
<path d="M96 963 c5 -10 9 -65 9 -123 0 -85 3 -105 14 -105 12 0 14 19 12 108
-1 59 1 107 6 107 24 -1 56 -46 102 -140 60 -124 102 -180 137 -180 13 0 24 3
24 6 0 3 -22 27 -50 53 l-50 47 0 122 c0 106 -2 122 -16 122 -14 0 -16 -12
-10 -97 l6 -98 -35 70 c-41 84 -83 125 -126 125 -26 0 -30 -3 -23 -17z"/>
<path d="M846 973 c-12 -12 -6 -33 9 -33 8 0 15 6 15 14 0 17 -14 28 -24 19z"/>
<path d="M1200 943 c1 -36 2 -37 15 -19 19 26 19 56 0 56 -11 0 -15 -11 -15
-37z"/>
<path d="M2486 973 c-12 -12 -6 -33 9 -33 8 0 15 6 15 14 0 17 -14 28 -24 19z"/>
<path d="M2159 916 c-10 -23 -13 -38 -6 -45 5 -5 12 -39 14 -75 4 -45 10 -66
19 -66 10 0 11 16 7 70 l-6 70 32 0 c21 0 31 5 31 15 0 9 -9 15 -24 15 -17 0
-26 7 -30 25 -9 34 -19 31 -37 -9z"/>
<path d="M365 889 c-8 -12 -9 -11 29 -28 l29 -12 -31 -19 c-17 -11 -34 -31
-38 -45 -12 -49 39 -73 79 -38 18 17 19 17 28 0 11 -19 29 -23 29 -6 0 30 -61
136 -85 147 -32 15 -32 15 -40 1z m70 -99 c0 -18 -6 -26 -23 -28 -24 -4 -38
18 -28 44 3 9 15 14 28 12 17 -2 23 -10 23 -28z"/>
<path d="M564 886 c-34 -15 -50 -44 -34 -60 6 -6 25 -16 43 -22 46 -16 42 -39
-8 -40 -28 0 -40 -5 -40 -15 0 -36 97 -9 110 31 9 28 0 38 -46 51 -49 15 -45
35 5 32 31 -2 37 1 34 15 -4 22 -26 25 -64 8z"/>
<path d="M725 891 c-58 -24 -55 -66 6 -86 48 -16 45 -40 -6 -41 -47 0 -57 -27
-12 -32 20 -2 36 5 58 28 30 29 30 32 15 49 -10 10 -31 21 -47 25 -41 8 -32
31 12 31 24 0 34 5 34 15 0 17 -31 23 -60 11z"/>
<path d="M845 888 c-3 -8 -5 -46 -3 -84 2 -51 7 -69 17 -69 11 0 14 16 12 75
-2 73 -14 109 -26 78z"/>
<path d="M928 883 c-2 -10 -4 -47 -3 -83 0 -51 3 -65 15 -65 11 0 16 15 18 63
2 44 7 65 18 69 23 9 43 -15 50 -62 7 -49 26 -81 41 -72 7 4 5 22 -5 53 -16
50 -9 76 21 82 11 2 19 -9 27 -40 22 -85 26 -93 40 -93 8 0 13 7 11 15 -22 89
-35 127 -47 140 -13 13 -18 13 -43 -1 -26 -15 -30 -15 -45 -1 -12 13 -20 13
-40 4 -16 -7 -28 -8 -31 -2 -10 16 -23 12 -27 -7z"/>
<path d="M1303 880 c-50 -30 -42 -56 22 -77 45 -14 39 -38 -10 -39 -47 0 -57
-27 -12 -32 20 -2 36 5 58 28 30 29 30 32 15 49 -10 10 -31 21 -47 25 -41 8
-32 31 12 31 24 0 34 5 34 15 0 23 -36 23 -72 0z"/>
<path d="M2022 880 c-51 -31 -69 -102 -34 -133 23 -21 45 -21 82 -2 32 16 60
61 60 95 0 25 -34 60 -57 60 -10 0 -33 -9 -51 -20z m62 -26 c34 -33 12 -94
-33 -94 -34 0 -53 20 -53 57 0 46 54 69 86 37z"/>
<path d="M2485 888 c-3 -8 -5 -46 -3 -84 2 -51 7 -69 17 -69 11 0 14 16 12 75
-2 73 -14 109 -26 78z"/>
<path d="M2567 883 c-2 -10 -4 -47 -3 -83 1 -51 4 -65 16 -65 11 0 16 16 20
65 5 61 6 65 30 65 26 0 29 -6 50 -92 7 -26 16 -43 25 -43 19 0 19 10 -5 91
-22 72 -42 90 -79 70 -13 -7 -22 -8 -26 -1 -10 16 -23 12 -28 -7z"/>
<path d="M2820 893 c-48 -18 -84 -82 -68 -122 17 -46 58 -54 102 -20 l26 20 0
-40 c0 -28 -7 -48 -20 -61 -24 -24 -38 -25 -68 -4 -20 13 -23 14 -28 0 -9 -24
4 -36 40 -36 70 0 110 65 104 170 -3 57 -20 72 -26 23 -7 -57 -61 -83 -95 -45
-38 42 -3 100 52 89 33 -7 53 10 30 24 -16 10 -27 10 -49 2z"/>
</g>
</svg>
